<?xml version="1.0" encoding="UTF-8"?>
<!DOCTYPE svg PUBLIC "-//W3C//DTD SVG 1.1//EN" "http://www.w3.org/Graphics/SVG/1.1/DTD/svg11.dtd">
<svg xmlns="http://www.w3.org/2000/svg" version="1.1" width="178px" height="186px" style="shape-rendering:geometricPrecision; text-rendering:geometricPrecision; image-rendering:optimizeQuality; fill-rule:evenodd; clip-rule:evenodd" xmlns:xlink="http://www.w3.org/1999/xlink">
<g><path style="opacity:1" fill="#0d1515" d="M -0.5,-0.5 C 58.8333,-0.5 118.167,-0.5 177.5,-0.5C 177.5,61.5 177.5,123.5 177.5,185.5C 118.167,185.5 58.8333,185.5 -0.5,185.5C -0.5,123.5 -0.5,61.5 -0.5,-0.5 Z"/></g>
<g><path style="opacity:1" fill="#d0c3b9" d="M 85.5,7.5 C 91.3897,6.09685 95.723,7.93018 98.5,13C 98.1667,13.5 97.8333,14 97.5,14.5C 93.0321,6.943 88.0321,6.60967 82.5,13.5C 81.8257,10.8456 82.8257,8.84559 85.5,7.5 Z"/></g>
<g><path style="opacity:1" fill="#d2c6ba" d="M 87.5,11.5 C 89.6547,11.372 91.6547,11.872 93.5,13C 98.0657,17.4764 102.399,22.1431 106.5,27C 105.833,27.6667 105.167,27.6667 104.5,27C 102.65,24.9824 100.65,23.1491 98.5,21.5C 97.354,22.1449 96.354,22.9783 95.5,24C 104.858,32.9843 104.524,33.4843 94.5,25.5C 91.5,28.1667 88.5,28.1667 85.5,25.5C 81.7921,29.2101 77.7921,32.5434 73.5,35.5C 75.7726,31.6774 78.9392,28.0108 83,24.5C 83.6013,23.0347 83.1013,22.0347 81.5,21.5C 77.6819,24.8176 74.0152,28.3176 70.5,32C 69.8333,32.6667 69.1667,32.6667 68.5,32C 74.7276,24.9439 81.061,18.1106 87.5,11.5 Z"/></g>
<g><path style="opacity:1" fill="#171b1a" d="M 87.5,13.5 C 92.0058,13.2522 95.0058,15.2522 96.5,19.5C 95.8551,20.646 95.0217,21.646 94,22.5C 91,18.5 88,18.5 85,22.5C 83.5596,21.0696 83.2263,19.403 84,17.5C 85.3756,16.2949 86.5423,14.9616 87.5,13.5 Z"/></g>
<g><path style="opacity:1" fill="#181818" d="M 88.5,21.5 C 91.694,21.1756 92.694,22.3422 91.5,25C 90.2068,25.49 88.8734,25.6567 87.5,25.5C 87.4326,24.0413 87.7659,22.7079 88.5,21.5 Z"/></g>
<g><path style="opacity:1" fill="#f6e2d1" d="M 137.5,65.5 C 129.268,73.9177 119.602,76.5844 108.5,73.5C 109.5,72.6667 110.5,71.8333 111.5,71C 122.458,71.1902 130.791,66.6902 136.5,57.5C 136.333,57.1667 136.167,56.8333 136,56.5C 128.545,64.6747 119.711,67.008 109.5,63.5C 115.497,63.1701 121.163,61.6701 126.5,59C 113.211,62.3824 109.377,57.8824 115,45.5C 119.941,38.7878 126.441,34.7878 134.5,33.5C 138.363,32.8496 141.196,34.1829 143,37.5C 143.488,28.8196 139.321,24.4863 130.5,24.5C 115.733,27.0899 105.567,35.4232 100,49.5C 99.6667,55.1667 99.3333,60.8333 99,66.5C 98.3292,67.2524 97.4959,67.5858 96.5,67.5C 91.8191,44.0396 100.819,28.2063 123.5,20C 143.525,17.0255 151.691,25.5255 148,45.5C 145.791,52.9202 142.291,59.5869 137.5,65.5 Z"/></g>
<g><path style="opacity:1" fill="#f2e0cf" d="M 83.5,61.5 C 82.2692,64.6867 81.1026,68.02 80,71.5C 79.0853,70.6721 78.4186,69.6721 78,68.5C 77.6667,65.1667 77.3333,61.8333 77,58.5C 76.6475,65.0555 73.4809,69.5555 67.5,72C 69.3774,72.5758 71.2108,72.4091 73,71.5C 74.4341,71.9304 75.6008,72.7638 76.5,74C 69.8973,77.2838 63.2306,77.2838 56.5,74C 52.2587,70.6551 48.592,66.8218 45.5,62.5C 40.0474,53.9288 35.3808,44.9288 31.5,35.5C 32.8734,35.3433 34.2068,35.51 35.5,36C 43.351,43.352 51.351,50.5186 59.5,57.5C 60.5827,56.635 60.7494,55.635 60,54.5C 51.9897,47.322 44.1564,39.9887 36.5,32.5C 37.0016,31.479 37.6683,31.3123 38.5,32C 46.7221,39.2267 55.2221,46.06 64,52.5C 65.2575,52.1501 65.5908,51.4835 65,50.5C 56.5,43.3333 48,36.1667 39.5,29C 40.5,28.3333 41.5,28.3333 42.5,29C 50.8333,35.3333 59.1667,41.6667 67.5,48C 68.7248,48.5628 69.7248,48.2295 70.5,47C 62.194,39.849 53.5273,33.1823 44.5,27C 43.029,25.0811 43.3623,24.0811 45.5,24C 56.1494,28.6542 66.1494,34.3209 75.5,41C 81.7957,46.3825 84.4624,53.2159 83.5,61.5 Z"/></g>
<g><path style="opacity:1" fill="#32322e" d="M 41.5,45.5 C 46.4646,49.9634 51.2979,54.6301 56,59.5C 56.7494,60.635 56.5827,61.635 55.5,62.5C 50.0614,57.4017 45.3947,51.7351 41.5,45.5 Z"/></g>
<g><path style="opacity:1" fill="#b6aea9" d="M 32.5,62.5 C 35.9571,62.6672 36.2904,63.6672 33.5,65.5C 32.6143,64.675 32.281,63.675 32.5,62.5 Z"/></g>
<g><path style="opacity:1" fill="#c9beba" d="M 144.5,62.5 C 145.675,62.281 146.675,62.6143 147.5,63.5C 145.948,64.7979 144.948,64.4646 144.5,62.5 Z"/></g>
<g><path style="opacity:1" fill="#111817" d="M 137.5,65.5 C 136.438,67.2341 136.438,68.9008 137.5,70.5C 136.761,70.369 136.094,70.5357 135.5,71C 140.5,76 145.5,81 150.5,86C 148.225,88.9478 145.391,91.1144 142,92.5C 138.863,91.0551 138.697,89.2217 141.5,87C 140.5,86.3333 139.5,86.3333 138.5,87C 136.514,92.6827 138.514,95.016 144.5,94C 146.875,91.8241 149.208,89.6574 151.5,87.5C 156.378,89.8249 156.545,92.1583 152,94.5C 148.157,91.8315 147.657,92.4982 150.5,96.5C 144.353,103.815 138.019,110.982 131.5,118C 132.167,118.667 132.833,118.667 133.5,118C 136.036,115.295 138.703,112.795 141.5,110.5C 142.014,112.512 142.18,114.512 142,116.5C 139.94,117.761 138.44,119.428 137.5,121.5C 136.518,120.859 135.518,120.193 134.5,119.5C 134.167,119.833 133.833,120.167 133.5,120.5C 135.552,122.878 137.552,125.211 139.5,127.5C 139.567,128.959 139.234,130.292 138.5,131.5C 132.243,123.399 125.743,115.399 119,107.5C 118.195,111.909 119.195,115.909 122,119.5C 124.945,123.067 128.111,126.4 131.5,129.5C 130.998,130.521 130.332,130.688 129.5,130C 124.618,126.786 120.785,122.619 118,117.5C 116.908,112.86 115.908,108.193 115,103.5C 114.581,102.328 113.915,101.328 113,100.5C 110.633,107.081 111.3,113.414 115,119.5C 121.009,124.677 126.842,130.011 132.5,135.5C 129.178,136.946 126.178,136.446 123.5,134C 117.833,127.667 112.167,121.333 106.5,115C 99.6378,113.741 94.3045,110.241 90.5,104.5C 91.3382,104.158 91.6716,103.492 91.5,102.5C 89.9382,102.733 88.6049,103.4 87.5,104.5C 87.628,102.345 87.128,100.345 86,98.5C 85.3333,97.1667 84.6667,97.1667 84,98.5C 83.3708,102.871 83.5375,107.204 84.5,111.5C 83.8333,111.833 83.1667,112.167 82.5,112.5C 81.037,109.797 80.2037,106.797 80,103.5C 78.908,106.044 78.2414,108.711 78,111.5C 71.5396,119.629 64.7062,127.463 57.5,135C 55.3225,136.202 52.9892,136.702 50.5,136.5C 60.8805,122.932 71.5472,109.432 82.5,96C 80.9095,94.9542 79.4095,93.7875 78,92.5C 66.1102,104.676 54.9435,117.343 44.5,130.5C 44.6716,129.508 44.3382,128.842 43.5,128.5C 44.0507,125.733 45.3841,123.4 47.5,121.5C 46.5754,120.438 45.5754,120.438 44.5,121.5C 44.5,119.833 44.5,118.167 44.5,116.5C 46.1288,117.625 47.6288,118.959 49,120.5C 49.6667,119.5 49.6667,118.5 49,117.5C 42.1667,110.667 35.3333,103.833 28.5,97C 30.6157,95.8293 31.2824,94.3293 30.5,92.5C 29.1861,93.3128 28.0195,94.3128 27,95.5C 26,94.5 25,93.5 24,92.5C 24.1343,90.8107 24.6343,89.144 25.5,87.5C 25.5,86.8333 25.5,86.1667 25.5,85.5C 28.6043,88.1009 31.6043,90.9343 34.5,94C 38.4817,95.4208 41.1484,94.2541 42.5,90.5C 41.5139,86.8529 39.1806,85.6862 35.5,87C 34.2888,87.8928 34.2888,88.7261 35.5,89.5C 37.0709,88.6906 38.7376,88.3573 40.5,88.5C 40.5,89.8333 40.5,91.1667 40.5,92.5C 35.3138,92.9068 31.6471,90.7402 29.5,86C 35,80.5 40.5,75 46,69.5C 46.2071,67.2385 45.3738,66.9052 43.5,68.5C 43.0825,67.7784 42.4158,67.2784 41.5,67C 43.751,66.2525 45.0844,64.7525 45.5,62.5C 48.592,66.8218 52.2587,70.6551 56.5,74C 63.2306,77.2838 69.8973,77.2838 76.5,74C 75.6008,72.7638 74.4341,71.9304 73,71.5C 71.2108,72.4091 69.3774,72.5758 67.5,72C 73.4809,69.5555 76.6475,65.0555 77,58.5C 77.3333,61.8333 77.6667,65.1667 78,68.5C 78.4186,69.6721 79.0853,70.6721 80,71.5C 81.1026,68.02 82.2692,64.6867 83.5,61.5C 83.615,63.9468 84.615,65.9468 86.5,67.5C 83.7504,73.4616 84.2504,79.4616 88,85.5C 93.8233,91.1464 98.6566,97.4798 102.5,104.5C 103.652,101.894 103.818,99.2272 103,96.5C 99.7147,91.5463 96.048,86.8797 92,82.5C 90.878,80.5932 90.0447,78.5932 89.5,76.5C 90.1667,74.5 90.8333,72.5 91.5,70.5C 91.3992,75.5335 93.0659,79.8669 96.5,83.5C 98.0915,78.4827 97.4248,73.816 94.5,69.5C 95.8333,69.5 96.5,68.8333 96.5,67.5C 97.4959,67.5858 98.3292,67.2524 99,66.5C 99.3333,60.8333 99.6667,55.1667 100,49.5C 105.567,35.4232 115.733,27.0899 130.5,24.5C 139.321,24.4863 143.488,28.8196 143,37.5C 141.196,34.1829 138.363,32.8496 134.5,33.5C 126.441,34.7878 119.941,38.7878 115,45.5C 109.377,57.8824 113.211,62.3824 126.5,59C 121.163,61.6701 115.497,63.1701 109.5,63.5C 119.711,67.008 128.545,64.6747 136,56.5C 136.167,56.8333 136.333,57.1667 136.5,57.5C 130.791,66.6902 122.458,71.1902 111.5,71C 110.5,71.8333 109.5,72.6667 108.5,73.5C 119.602,76.5844 129.268,73.9177 137.5,65.5 Z"/></g>
<g><path style="opacity:1" fill="#ebd8ca" d="M 94.5,69.5 C 97.4248,73.816 98.0915,78.4827 96.5,83.5C 93.0659,79.8669 91.3992,75.5335 91.5,70.5C 92.148,66.0137 93.148,65.6804 94.5,69.5 Z"/></g>
<g><path style="opacity:1" fill="#f6e4d4" d="M 101.5,77.5 C 105.182,77.3347 108.848,77.5014 112.5,78C 114.384,78.2163 116.051,78.883 117.5,80C 112.115,80.2139 106.781,80.7139 101.5,81.5C 100.374,80.1916 100.374,78.8583 101.5,77.5 Z"/></g>
<g><path style="opacity:1" fill="#e6d9cb" d="M 102.5,83.5 C 110.12,84.1359 109.953,85.4692 102,87.5C 101.167,87.1667 100.333,86.8333 99.5,86.5C 100.34,85.265 101.34,84.265 102.5,83.5 Z"/></g>
<g><path style="opacity:1" fill="#d0c5b9" d="M 25.5,85.5 C 23.5076,83.0136 22.1743,80.1802 21.5,77C 21.6667,73.5 23.5,71.6667 27,71.5C 30.2545,71.7453 31.5879,73.412 31,76.5C 25.9289,71.8383 23.5956,72.8383 24,79.5C 24.9733,81.64 26.4733,83.3067 28.5,84.5C 33.498,79.176 38.498,73.8427 43.5,68.5C 45.3738,66.9052 46.2071,67.2385 46,69.5C 40.5,75 35,80.5 29.5,86C 31.6471,90.7402 35.3138,92.9068 40.5,92.5C 40.5,91.1667 40.5,89.8333 40.5,88.5C 38.7376,88.3573 37.0709,88.6906 35.5,89.5C 34.2888,88.7261 34.2888,87.8928 35.5,87C 39.1806,85.6862 41.5139,86.8529 42.5,90.5C 41.1484,94.2541 38.4817,95.4208 34.5,94C 31.6043,90.9343 28.6043,88.1009 25.5,85.5 Z"/></g>
<g><path style="opacity:1" fill="#eddccc" d="M 105.5,106.5 C 106.167,104.5 106.833,102.5 107.5,100.5C 110.449,112.152 106.783,114.652 96.5,108C 95.3365,105.672 93.6698,103.838 91.5,102.5C 91.2914,101.078 90.7914,99.745 90,98.5C 84.4794,94.069 79.146,89.4023 74,84.5C 72.5039,82.5497 72.3373,80.5497 73.5,78.5C 75.316,80.8169 77.316,82.9835 79.5,85C 84.5541,87.3887 89.0541,90.5554 93,94.5C 95.215,99.0997 98.0483,103.266 101.5,107C 103.066,107.765 104.399,107.598 105.5,106.5 Z"/></g>
<g><path style="opacity:1" fill="#d5c8bd" d="M 137.5,70.5 C 141.812,75.479 146.479,80.1456 151.5,84.5C 154.919,81.997 156.419,78.6636 156,74.5C 153.119,72.9717 150.786,73.6384 149,76.5C 148.835,72.0233 151.002,70.5233 155.5,72C 157.357,73.1824 158.357,74.849 158.5,77C 157.502,80.5035 155.835,83.6701 153.5,86.5C 154.833,88.5 156.5,90.1667 158.5,91.5C 156.959,93.204 155.625,95.0374 154.5,97C 155.651,98.8231 156.818,100.656 158,102.5C 159.203,106.963 157.536,109.63 153,110.5C 149.745,110.255 148.412,108.588 149,105.5C 154.071,110.162 156.404,109.162 156,102.5C 154.647,101.315 153.48,99.9814 152.5,98.5C 148.102,101.895 144.436,105.895 141.5,110.5C 138.703,112.795 136.036,115.295 133.5,118C 132.833,118.667 132.167,118.667 131.5,118C 138.019,110.982 144.353,103.815 150.5,96.5C 147.657,92.4982 148.157,91.8315 152,94.5C 156.545,92.1583 156.378,89.8249 151.5,87.5C 149.208,89.6574 146.875,91.8241 144.5,94C 138.514,95.016 136.514,92.6827 138.5,87C 139.5,86.3333 140.5,86.3333 141.5,87C 138.697,89.2217 138.863,91.0551 142,92.5C 145.391,91.1144 148.225,88.9478 150.5,86C 145.5,81 140.5,76 135.5,71C 136.094,70.5357 136.761,70.369 137.5,70.5 Z"/></g>
<g><path style="opacity:1" fill="#efdccd" d="M 86.5,67.5 C 87.1174,67.6107 87.6174,67.944 88,68.5C 88.3951,71.2066 88.8951,73.8733 89.5,76.5C 90.0447,78.5932 90.878,80.5932 92,82.5C 96.048,86.8797 99.7147,91.5463 103,96.5C 103.818,99.2272 103.652,101.894 102.5,104.5C 98.6566,97.4798 93.8233,91.1464 88,85.5C 84.2504,79.4616 83.7504,73.4616 86.5,67.5 Z"/></g>
<g><path style="opacity:1" fill="#cdc2b7" d="M 25.5,87.5 C 24.6343,89.144 24.1343,90.8107 24,92.5C 25,93.5 26,94.5 27,95.5C 28.0195,94.3128 29.1861,93.3128 30.5,92.5C 31.2824,94.3293 30.6157,95.8293 28.5,97C 35.3333,103.833 42.1667,110.667 49,117.5C 49.6667,118.5 49.6667,119.5 49,120.5C 47.6288,118.959 46.1288,117.625 44.5,116.5C 39.3374,111.17 34.3374,105.67 29.5,100C 24.7466,100.11 22.9133,102.61 24,107.5C 26.8808,109.028 29.2141,108.362 31,105.5C 31.3576,108.872 29.6909,110.539 26,110.5C 21.7941,109.472 20.4608,106.805 22,102.5C 23.1667,100.667 24.3333,98.8333 25.5,97C 20.4717,93.5653 20.4717,90.3986 25.5,87.5 Z"/></g>
<g><path style="opacity:1" fill="#e0d1c1" d="M 87.5,104.5 C 87.9368,107.807 87.2702,110.807 85.5,113.5C 84.7025,113.043 84.3691,112.376 84.5,111.5C 83.5375,107.204 83.3708,102.871 84,98.5C 84.6667,97.1667 85.3333,97.1667 86,98.5C 87.128,100.345 87.628,102.345 87.5,104.5 Z"/></g>
<g><path style="opacity:1" fill="#6d6b67" d="M 107.5,100.5 C 106.833,102.5 106.167,104.5 105.5,106.5C 105.336,103.813 105.503,101.146 106,98.5C 106.717,99.0442 107.217,99.7109 107.5,100.5 Z"/></g>
<g><path style="opacity:1" fill="#c2b7b2" d="M 32.5,118.5 C 33.675,118.281 34.675,118.614 35.5,119.5C 33.9483,120.798 32.9483,120.465 32.5,118.5 Z"/></g>
<g><path style="opacity:1" fill="#c8c0b9" d="M 144.5,118.5 C 145.675,118.281 146.675,118.614 147.5,119.5C 145.948,120.798 144.948,120.465 144.5,118.5 Z"/></g>
<g><path style="opacity:1" fill="#b5aea8" d="M 137.5,121.5 C 138.167,123.5 138.833,125.5 139.5,127.5C 137.552,125.211 135.552,122.878 133.5,120.5C 133.833,120.167 134.167,119.833 134.5,119.5C 135.518,120.193 136.518,120.859 137.5,121.5 Z"/></g>
<g><path style="opacity:1" fill="#cabfae" d="M 43.5,128.5 C 42.3279,126.123 42.6612,123.79 44.5,121.5C 45.5754,120.438 46.5754,120.438 47.5,121.5C 45.3841,123.4 44.0507,125.733 43.5,128.5 Z"/></g>
<g><path style="opacity:1" fill="#f1dece" d="M 138.5,131.5 C 139.013,141.439 134.346,144.939 124.5,142C 112.692,130.524 101.192,118.691 90,106.5C 89.3083,105.563 89.475,104.897 90.5,104.5C 94.3045,110.241 99.6378,113.741 106.5,115C 112.167,121.333 117.833,127.667 123.5,134C 126.178,136.446 129.178,136.946 132.5,135.5C 126.842,130.011 121.009,124.677 115,119.5C 111.3,113.414 110.633,107.081 113,100.5C 113.915,101.328 114.581,102.328 115,103.5C 115.908,108.193 116.908,112.86 118,117.5C 120.785,122.619 124.618,126.786 129.5,130C 130.332,130.688 130.998,130.521 131.5,129.5C 128.111,126.4 124.945,123.067 122,119.5C 119.195,115.909 118.195,111.909 119,107.5C 125.743,115.399 132.243,123.399 138.5,131.5 Z"/></g>
<g><path style="opacity:1" fill="#f3e0d0" d="M 82.5,112.5 C 82.6567,113.873 82.49,115.207 82,116.5C 74.6165,124.762 67.1165,132.928 59.5,141C 48.2903,145.58 43.2903,142.08 44.5,130.5C 54.9435,117.343 66.1102,104.676 78,92.5C 79.4095,93.7875 80.9095,94.9542 82.5,96C 71.5472,109.432 60.8805,122.932 50.5,136.5C 52.9892,136.702 55.3225,136.202 57.5,135C 64.7062,127.463 71.5396,119.629 78,111.5C 78.2414,108.711 78.908,106.044 80,103.5C 80.2037,106.797 81.037,109.797 82.5,112.5 Z"/></g>
<g><path style="opacity:1" fill="#312b24" d="M 58.5,121.5 C 59.525,121.897 59.6917,122.563 59,123.5C 56.6667,125.833 54.3333,128.167 52,130.5C 51.3333,129.833 51.3333,129.167 52,128.5C 54.3722,126.297 56.5389,123.963 58.5,121.5 Z"/></g>
<g><path style="opacity:1" fill="#ccc1b6" d="M 73.5,128.5 C 77.6009,130.765 80.9342,133.932 83.5,138C 85.6772,138.345 87.6772,137.845 89.5,136.5C 91.6967,136.848 93.53,137.848 95,139.5C 98.5,136 102,132.5 105.5,129C 106.167,128.333 106.833,128.333 107.5,129C 104,132.5 100.5,136 97,139.5C 96.8595,141.256 97.3595,142.922 98.5,144.5C 98.1667,144.833 97.8333,145.167 97.5,145.5C 95.4659,142.631 92.9659,140.298 90,138.5C 86.8536,139.954 86.8536,141.62 90,143.5C 92.3663,142.062 92.8663,142.562 91.5,145C 90.5,145.667 89.5,145.667 88.5,145C 86.241,141.624 84.241,141.79 82.5,145.5C 82.1667,145.167 81.8333,144.833 81.5,144.5C 82.6405,142.922 83.1405,141.256 83,139.5C 79.2271,136.236 76.0604,132.57 73.5,128.5 Z"/></g>
<g><path style="opacity:1" fill="#f3dfce" d="M 52.5,156.5 C 55.5184,156.335 58.5184,156.502 61.5,157C 63.9087,159.351 63.5754,161.518 60.5,163.5C 58.9291,162.691 57.2624,162.357 55.5,162.5C 55.281,163.675 55.6143,164.675 56.5,165.5C 65.3703,167.722 67.3703,172.555 62.5,180C 57.2144,183.724 52.5477,183.224 48.5,178.5C 48.8036,176.559 49.6369,174.893 51,173.5C 52.7889,175.229 54.9556,175.896 57.5,175.5C 57.5,174.5 57.5,173.5 57.5,172.5C 50.0062,171.855 47.1729,167.855 49,160.5C 49.6897,158.65 50.8564,157.316 52.5,156.5 Z"/></g>
<g><path style="opacity:1" fill="#a99e96" d="M 13.5,157.5 C 22.8571,157.168 32.1904,157.502 41.5,158.5C 36.8333,158.833 32.1667,159.167 27.5,159.5C 22.4492,159.493 17.7825,158.827 13.5,157.5 Z"/></g>
<g><path style="opacity:1" fill="#cfc2b7" d="M 133.5,157.5 C 143.522,157.168 153.522,157.501 163.5,158.5C 158.5,158.833 153.5,159.167 148.5,159.5C 143.119,159.494 138.119,158.828 133.5,157.5 Z"/></g>
<g><path style="opacity:1" fill="#b3a89c" d="M 11.5,161.5 C 20.8571,161.168 30.1904,161.502 39.5,162.5C 34.8333,162.833 30.1667,163.167 25.5,163.5C 20.4492,163.493 15.7825,162.827 11.5,161.5 Z"/></g>
<g><path style="opacity:1" fill="#b4aa9e" d="M 135.5,161.5 C 145.855,161.168 156.188,161.501 166.5,162.5C 155.849,163.666 145.182,163.832 134.5,163C 135.056,162.617 135.389,162.117 135.5,161.5 Z"/></g>
<g><path style="opacity:1" fill="#f5e1cf" d="M 72.5,156.5 C 78.2617,156.149 83.9284,156.649 89.5,158C 98.0272,164.181 98.6939,171.181 91.5,179C 85.3947,181.248 79.0614,182.081 72.5,181.5C 72.5,173.167 72.5,164.833 72.5,156.5 Z"/></g>
<g><path style="opacity:1" fill="#0f1718" d="M 84.5,163.5 C 87.5248,164.033 88.8581,165.867 88.5,169C 88.8581,172.133 87.5248,173.967 84.5,174.5C 83.1667,174.5 81.8333,174.5 80.5,174.5C 80.5,170.833 80.5,167.167 80.5,163.5C 81.8333,163.5 83.1667,163.5 84.5,163.5 Z"/></g>
<g><path style="opacity:1" fill="#636158" d="M 84.5,163.5 C 83.1667,163.5 81.8333,163.5 80.5,163.5C 80.5,167.167 80.5,170.833 80.5,174.5C 81.8333,174.5 83.1667,174.5 84.5,174.5C 83.0813,175.451 81.4147,175.784 79.5,175.5C 79.5,171.167 79.5,166.833 79.5,162.5C 81.4147,162.216 83.0813,162.549 84.5,163.5 Z"/></g>
<g><path style="opacity:1" fill="#d7cdbe" d="M 143.5,166.5 C 149.158,165.679 150.825,167.846 148.5,173C 142.741,174.139 141.074,171.972 143.5,166.5 Z"/></g>
<g><path style="opacity:1" fill="#c3b9af" d="M 28.5,166.5 C 33.0057,165.527 35.1724,167.194 35,171.5C 28.6446,175.201 26.4779,173.534 28.5,166.5 Z"/></g>
<g><path style="opacity:1" fill="#1f2120" d="M 144.5,167.5 C 145.5,167.5 146.5,167.5 147.5,167.5C 147.5,168.833 147.5,170.167 147.5,171.5C 146.167,171.5 144.833,171.5 143.5,171.5C 143.433,170.041 143.766,168.708 144.5,167.5 Z"/></g>
<g><path style="opacity:1" fill="#191a19" d="M 30.5,167.5 C 32.9118,167.694 33.9118,169.027 33.5,171.5C 32.1667,171.5 30.8333,171.5 29.5,171.5C 29.4326,170.041 29.7659,168.708 30.5,167.5 Z"/></g>
<g><path style="opacity:1" fill="#f1decc" d="M 110.5,156.5 C 113.85,156.335 117.183,156.502 120.5,157C 122.223,157.523 123.556,158.523 124.5,160C 123.464,161.901 122.298,163.735 121,165.5C 115.446,160.848 111.613,162.015 109.5,169C 111.613,175.985 115.446,177.152 121,172.5C 126.284,177.313 125.45,180.48 118.5,182C 105.688,181.514 100.855,175.014 104,162.5C 106.063,160.266 108.229,158.266 110.5,156.5 Z"/></g>
<g><path style="opacity:1" fill="#948c82" d="M 11.5,176.5 C 20.8571,176.168 30.1904,176.502 39.5,177.5C 34.8333,177.833 30.1667,178.167 25.5,178.5C 20.4492,178.493 15.7825,177.827 11.5,176.5 Z"/></g>
<g><path style="opacity:1" fill="#958b81" d="M 137.5,177.5 C 146.991,176.342 156.658,176.175 166.5,177C 161.839,178.143 157.005,178.643 152,178.5C 147.087,178.474 142.254,178.141 137.5,177.5 Z"/></g>
<g><path style="opacity:1" fill="#928981" d="M 13.5,180.5 C 22.8571,180.168 32.1904,180.502 41.5,181.5C 36.8333,181.833 32.1667,182.167 27.5,182.5C 22.4492,182.493 17.7825,181.827 13.5,180.5 Z"/></g>
<g><path style="opacity:1" fill="#92887f" d="M 133.5,180.5 C 143.855,180.168 154.188,180.501 164.5,181.5C 159.333,181.833 154.167,182.167 149,182.5C 143.454,182.495 138.288,181.828 133.5,180.5 Z"/></g>
</svg>
